<?xml version="1.0" standalone="no"?>
<!DOCTYPE svg PUBLIC "-//W3C//DTD SVG 20010904//EN"
 "http://www.w3.org/TR/2001/REC-SVG-20010904/DTD/svg10.dtd">
<svg version="1.0" xmlns="http://www.w3.org/2000/svg"
 width="583.000000pt" height="583.000000pt" viewBox="0 0 583.000000 583.000000"
 preserveAspectRatio="xMidYMid meet">
<metadata>
Created by potrace 1.14, written by Peter Selinger 2001-2017
</metadata>
<g transform="translate(0.000000,583.000000) scale(0.100000,-0.100000)"
fill="#000000" stroke="none">
<path d="M3375 5029 c-16 -5 -48 -11 -70 -14 -21 -3 -55 -9 -75 -15 -19 -5
-53 -11 -75 -15 -140 -20 -362 -138 -467 -249 -69 -72 -73 -81 -42 -101 25
-16 27 -16 58 13 66 62 182 130 291 170 186 67 226 77 375 98 72 10 261 11
305 1 22 -5 70 -10 107 -12 86 -4 116 -14 260 -86 178 -89 259 -174 313 -329
25 -71 19 -183 -13 -244 -15 -27 -28 -42 -31 -35 -2 8 -17 29 -32 46 -27 31
-59 116 -59 154 0 27 -40 36 -58 13 -20 -27 -8 -127 23 -186 50 -96 76 -180
78 -254 2 -56 -2 -76 -15 -91 -16 -17 -25 -46 -27 -82 -1 -21 -117 -129 -164
-152 -22 -12 -79 -34 -125 -49 -71 -24 -100 -28 -187 -28 -56 0 -108 -3 -114
-7 -18 -11 -40 13 -52 59 -24 92 -45 113 -129 130 -84 17 -210 63 -210 76 0 9
-36 25 -124 57 -89 32 -112 36 -138 22 -11 -6 -35 -13 -52 -16 -70 -11 -109
-71 -115 -175 -2 -44 1 -51 44 -97 25 -27 57 -52 70 -55 14 -4 25 -13 25 -22
0 -8 16 -22 36 -30 35 -15 36 -17 30 -56 -7 -41 -32 -98 -48 -109 -5 -3 -13
-32 -17 -64 l-8 -57 41 6 c22 4 41 8 42 9 0 1 19 29 42 63 26 40 37 65 31 71
-6 6 -2 25 10 54 12 24 21 57 21 72 0 37 -46 82 -138 136 -38 22 -72 46 -75
54 -6 16 10 118 20 128 31 31 106 7 231 -74 37 -24 85 -48 107 -54 22 -7 58
-18 80 -26 23 -9 57 -13 78 -10 56 7 64 -5 63 -98 -1 -71 -4 -83 -24 -99 -12
-10 -22 -22 -22 -26 0 -4 -21 -49 -46 -101 -25 -52 -57 -126 -70 -165 -13 -39
-42 -95 -64 -124 -22 -29 -40 -57 -40 -62 0 -19 -64 -75 -107 -94 -60 -26
-122 -29 -202 -8 -219 57 -251 90 -254 258 l-1 97 66 128 66 128 -24 16 c-13
8 -30 13 -39 10 -18 -8 -94 -110 -119 -162 -10 -22 -23 -48 -28 -58 -11 -23
-22 -105 -22 -175 l-1 -52 -227 0 -228 0 -1 53 c-1 48 -3 84 -7 113 -2 11 -78
127 -146 222 -35 50 -70 71 -105 65 -14 -2 -26 -5 -27 -6 -5 -4 55 -89 97
-140 48 -57 90 -173 95 -263 4 -86 -20 -132 -83 -159 -27 -10 -65 -19 -85 -20
-20 0 -39 -3 -43 -7 -4 -4 -20 -4 -36 -1 -16 3 -48 1 -72 -5 -23 -6 -78 -14
-122 -18 -197 -16 -234 -10 -286 48 -21 22 -36 45 -35 51 11 65 118 145 196
148 63 1 152 41 177 78 13 19 21 36 18 39 -2 3 -30 0 -62 -6 -32 -7 -76 -14
-98 -18 -130 -19 -212 -58 -272 -129 -37 -45 -64 -61 -82 -50 -14 8 10 71 83
215 68 136 91 159 141 140 18 -7 40 -7 63 -1 21 6 57 13 82 16 107 14 268 85
333 148 47 45 112 172 120 237 4 22 9 25 47 27 24 1 50 9 58 17 14 14 14 18
-3 36 -13 14 -28 20 -43 17 -46 -9 -68 43 -53 124 1 3 19 12 42 19 46 16 70
46 43 57 -9 3 -39 6 -67 7 l-51 1 -52 128 c-28 70 -62 139 -75 153 l-24 26 -7
-34 c-6 -25 1 -61 29 -148 37 -119 43 -150 30 -186 -5 -15 -3 -27 8 -37 8 -9
19 -27 25 -42 9 -23 6 -30 -22 -55 l-32 -29 28 -26 c34 -32 31 -51 -25 -146
-84 -144 -149 -184 -375 -229 -60 -12 -117 -24 -127 -27 -12 -3 -18 0 -16 9 4
31 -3 46 -38 85 -48 53 -76 68 -141 82 -71 15 -132 43 -221 103 -96 65 -129
70 -204 29 -64 -34 -77 -37 -77 -17 0 19 -45 26 -72 10 -44 -26 -50 -27 -59
-13 -20 31 -5 44 53 49 32 3 62 10 68 16 15 15 -7 64 -29 65 -9 0 -42 2 -74 3
-32 2 -63 8 -69 14 -19 19 -14 202 7 242 9 18 19 56 21 84 4 53 6 186 3 202
-6 32 21 64 53 64 11 0 43 -12 71 -26 67 -33 90 -33 157 1 61 31 84 38 215 65
109 23 213 33 360 34 l110 1 102 69 c85 57 105 66 118 56 32 -27 73 -133 71
-188 -1 -30 1 -32 35 -32 l36 0 2 71 c1 60 -3 79 -23 113 -41 70 -82 104 -136
111 -61 8 -102 -9 -165 -69 -27 -25 -54 -46 -60 -47 -5 -1 -68 -2 -140 -4
-129 -2 -199 -13 -400 -65 -96 -24 -131 -37 -168 -63 l-28 -19 -71 36 c-38 20
-75 36 -82 36 -22 0 -81 -21 -99 -34 -30 -23 -44 -101 -37 -211 6 -92 4 -107
-23 -190 -22 -68 -30 -111 -31 -175 -1 -81 -2 -85 -23 -82 -17 2 -23 -4 -28
-27 -9 -41 0 -51 40 -51 41 0 57 -20 74 -95 12 -48 12 -50 -13 -68 -14 -10
-26 -27 -26 -37 0 -25 46 -35 75 -16 21 14 25 14 47 -2 40 -31 215 -140 267
-167 57 -30 57 -27 1 -141 -37 -77 -37 -79 -16 -87 44 -17 62 -1 91 80 15 43
31 86 36 95 23 44 -3 124 -37 117 -22 -4 -33 4 -79 57 -40 46 -49 64 -49 95 0
43 26 79 58 79 23 0 66 -25 110 -64 16 -14 39 -26 51 -26 30 0 232 -66 262
-85 12 -8 25 -25 28 -38 8 -29 -51 -199 -127 -367 -12 -25 -29 -65 -40 -89
-20 -47 -82 -111 -133 -135 -38 -19 -192 -14 -251 7 -145 52 -186 109 -169
230 4 29 9 68 11 87 7 63 27 133 52 188 24 53 24 64 -2 68 -14 2 -62 -51 -85
-94 -30 -56 -52 -144 -58 -230 -3 -51 -10 -95 -14 -98 -15 -9 -137 -21 -245
-23 -22 -1 -49 -7 -60 -15 -17 -13 -17 -16 -4 -30 21 -21 46 -24 192 -25 l126
-1 38 -40 c21 -22 47 -43 59 -46 11 -4 39 -15 62 -25 69 -31 234 -66 288 -61
87 8 225 86 225 127 0 25 7 29 73 40 34 5 37 4 37 -18 0 -36 76 -111 134 -132
78 -30 338 -24 486 11 49 11 65 15 90 20 84 17 137 41 180 84 l46 46 129 2
c112 2 187 7 270 17 30 3 60 -14 79 -45 24 -41 96 -107 131 -121 17 -7 39 -20
50 -29 24 -21 58 -29 139 -36 34 -3 75 -7 91 -9 17 -1 42 4 57 11 19 10 29 11
34 3 18 -30 224 76 224 115 0 30 63 76 104 76 6 0 22 -19 33 -42 32 -65 99
-135 136 -144 74 -17 177 -27 287 -26 52 1 139 1 194 1 83 0 102 3 120 19 11
10 48 25 81 32 58 14 96 35 243 138 l62 42 167 3 c169 3 213 11 213 41 0 35
-28 40 -200 38 -142 -2 -171 0 -184 13 -9 9 -16 24 -17 33 -2 89 -24 163 -66
224 -14 20 -22 41 -19 47 8 13 -152 212 -182 227 -15 7 -20 14 -13 18 6 4 11
16 11 26 0 18 36 89 51 100 17 12 32 104 34 209 2 98 6 117 24 140 11 14 28
39 37 55 21 38 54 177 49 207 -2 13 -6 55 -9 92 -6 68 -24 117 -54 146 -9 9
-39 48 -68 87 -29 39 -70 85 -91 101 -115 90 -293 173 -373 173 -19 0 -45 7
-57 15 -12 8 -32 14 -44 12 -13 -2 -39 0 -59 5 -19 5 -84 11 -145 13 -60 1
-123 5 -140 8 -16 3 -43 1 -60 -4z m-2765 -1311 c-5 -18 -11 -46 -14 -62 -6
-35 -9 -38 -28 -31 -25 10 -44 54 -32 73 8 13 59 45 81 52 1 0 -3 -15 -7 -32z
m3592 -147 c38 -14 175 -234 213 -341 19 -53 22 -150 5 -176 -16 -25 -114
-104 -129 -104 -7 0 -59 -15 -115 -34 -56 -19 -136 -37 -177 -41 -41 -4 -96
-11 -124 -15 -77 -13 -185 -6 -225 14 -88 44 -115 176 -52 249 29 33 131 72
217 82 115 14 122 16 160 50 32 30 36 37 25 50 -16 20 -105 13 -264 -21 -94
-19 -118 -29 -176 -68 -49 -33 -72 -57 -85 -87 -18 -38 -50 -67 -62 -55 -3 3
-1 11 4 18 5 7 16 29 23 48 8 19 27 64 44 100 16 36 28 69 27 73 -3 15 82 186
90 181 13 -8 90 -17 119 -15 49 5 95 4 123 -2 15 -3 46 0 70 8 23 7 71 21 107
31 36 10 85 28 109 41 51 27 44 25 73 14z"/>
<path d="M1566 4624 c-24 -23 -19 -49 10 -63 23 -10 30 -9 50 10 29 27 30 45
5 59 -27 14 -47 13 -65 -6z"/>
<path d="M2550 4551 c-54 -12 -97 -64 -163 -196 -82 -162 -107 -308 -77 -442
11 -48 16 -56 76 -98 111 -79 224 -105 288 -65 41 25 104 92 116 124 15 40 50
238 50 283 0 43 -27 103 -47 103 -6 0 -23 -14 -37 -30 -23 -27 -25 -39 -25
-108 1 -86 -4 -124 -28 -197 -16 -52 -32 -79 -41 -71 -3 3 -18 -5 -33 -19 -28
-23 -35 -23 -89 -10 -8 2 -21 4 -28 4 -16 1 -123 111 -117 121 2 4 0 22 -5 41
-7 23 -6 45 2 69 6 19 12 49 13 67 4 52 55 171 127 297 37 65 68 119 68 121 0
8 -28 11 -50 6z"/>
<path d="M525 4446 c-20 -14 -24 -81 -6 -99 12 -12 53 -2 81 21 28 23 21 51
-19 75 -35 20 -33 20 -56 3z"/>
<path d="M3952 4303 c-24 -44 -14 -98 19 -108 35 -11 66 3 80 36 10 27 10 36
-2 58 -19 33 -82 43 -97 14z"/>
<path d="M3311 4184 c-36 -30 -39 -61 -10 -98 15 -19 30 -26 54 -26 27 0 35 5
49 34 22 46 20 63 -9 91 -31 32 -46 31 -84 -1z"/>
<path d="M3692 4193 c-11 -10 -23 -30 -26 -45 -13 -57 64 -81 103 -32 27 34
27 59 -1 78 -29 21 -51 20 -76 -1z"/>
<path d="M1615 4140 c-22 -24 -24 -78 -4 -91 35 -22 72 2 81 54 4 20 0 32 -16
42 -27 20 -39 19 -61 -5z"/>
<path d="M5322 4110 c-36 -4 -48 -12 -77 -49 -37 -46 -37 -47 -40 -96 -3 -57
-15 -80 -58 -109 -96 -64 -90 -179 12 -251 40 -27 85 -28 198 -5 74 16 85 22
160 87 62 54 77 81 86 154 3 20 7 41 11 47 3 6 1 12 -4 14 -6 2 -12 20 -13 40
-3 31 -14 48 -64 97 -33 33 -71 62 -84 65 -44 9 -84 11 -127 6z m110 -136 c77
-49 98 -145 47 -213 -55 -74 -206 -115 -262 -71 -14 11 -30 20 -36 20 -6 0
-11 10 -11 23 0 14 22 46 60 84 33 34 56 64 51 67 -8 5 -6 28 5 83 5 25 48 43
84 36 14 -3 42 -16 62 -29z"/>
<path d="M1013 4039 c-46 -17 -38 -82 13 -116 24 -16 26 -15 52 10 26 26 39
82 21 93 -23 14 -66 21 -86 13z"/>
<path d="M1372 4020 c-27 -25 -27 -27 -1 -40 15 -9 28 -9 49 0 36 15 45 37 20
50 -28 15 -44 12 -68 -10z"/>
<path d="M4989 3458 c-39 -42 -52 -69 -51 -105 2 -48 24 -78 74 -104 33 -17
51 -20 91 -14 28 3 59 11 69 16 22 12 48 71 48 111 0 33 -43 80 -66 71 -17 -6
-38 -45 -48 -85 -8 -33 -24 -35 -60 -7 -33 26 -33 42 0 68 22 18 25 23 14 36
-27 33 -48 37 -71 13z"/>
<path d="M5097 2939 c-73 -11 -179 -48 -214 -75 -38 -29 -65 -103 -57 -154 6
-38 59 -169 75 -184 16 -17 10 -23 -46 -51 -32 -15 -56 -34 -56 -43 -6 -64 13
-106 56 -126 19 -9 69 -28 111 -42 73 -25 91 -27 264 -27 146 0 197 4 245 18
124 35 195 83 195 128 0 13 -13 44 -30 70 l-29 46 47 22 c46 21 54 24 79 27
24 4 46 89 40 153 -12 107 -53 149 -148 149 -15 0 -37 8 -50 19 -13 10 -42 21
-64 25 -21 4 -57 17 -80 29 -34 17 -59 21 -165 22 -69 1 -146 -2 -173 -6z
m237 -94 c59 -8 156 -48 156 -65 0 -9 -23 -17 -143 -50 -103 -28 -245 -21
-359 17 -43 15 -78 30 -78 34 0 17 77 53 120 56 25 2 70 6 100 11 65 9 123 8
204 -3z m351 -139 c6 -18 6 -33 -1 -44 -11 -17 -81 -62 -97 -62 -14 0 3 124
19 136 24 19 68 2 79 -30z m-710 -41 c158 -27 329 -32 410 -11 67 18 75 19 93
8 16 -11 -4 -52 -39 -83 -56 -49 -183 -96 -228 -83 -14 4 -48 8 -76 9 -27 1
-62 7 -77 13 -33 14 -112 92 -133 133 -16 29 -15 31 2 25 10 -3 32 -8 48 -11z"/>
<path d="M565 2140 c-22 -5 -56 -6 -76 -3 -25 3 -42 -1 -59 -15 -22 -18 -24
-26 -26 -153 -4 -176 -7 -508 -5 -534 2 -29 53 -58 83 -46 41 16 47 32 49 139
1 56 2 102 3 102 0 0 24 -6 52 -14 28 -7 93 -14 145 -15 81 -1 101 2 145 23
177 83 183 382 9 479 -23 13 -55 27 -71 31 -43 11 -203 14 -249 6z m216 -135
c52 -19 78 -44 89 -86 12 -45 4 -116 -16 -147 -30 -46 -120 -59 -223 -31 -35
9 -70 15 -78 12 -16 -6 -16 -7 -14 132 1 60 5 112 9 116 18 18 185 21 233 4z"/>
<path d="M2755 2139 c-22 -5 -59 -6 -81 -3 -34 5 -45 2 -63 -17 -18 -19 -21
-36 -22 -103 0 -45 -3 -192 -5 -328 -5 -261 -2 -282 39 -297 27 -10 73 5 83
27 4 9 8 59 9 110 1 51 4 95 7 97 3 3 32 -2 64 -10 82 -22 219 -18 270 7 94
46 144 139 138 262 -4 101 -55 186 -135 227 -66 33 -207 46 -304 28z m230
-141 c41 -22 61 -46 73 -88 17 -65 -5 -138 -50 -164 -38 -23 -130 -24 -199 -3
-25 8 -55 12 -66 11 -22 -4 -22 -1 -20 123 l2 126 30 4 c16 3 31 6 34 8 10 11
169 -3 196 -17z"/>
<path d="M3413 2130 c-36 -14 -38 -24 -79 -275 -23 -143 -4 -282 49 -351 62
-83 200 -117 367 -92 83 13 119 62 80 110 -16 20 -26 23 -77 19 -192 -12 -250
3 -278 72 -16 40 -22 159 -10 217 2 14 7 36 10 50 2 14 7 48 11 75 3 28 9 65
14 84 7 26 5 41 -8 63 -9 15 -19 28 -23 28 -4 0 -13 2 -21 4 -7 3 -23 1 -35
-4z"/>
<path d="M4135 2129 c-165 -38 -243 -191 -165 -326 41 -71 121 -115 254 -137
35 -6 76 -43 76 -67 0 -23 -44 -57 -85 -65 -35 -6 -91 16 -154 62 -49 35 -95
18 -105 -37 -6 -36 42 -92 108 -126 112 -58 282 -23 344 69 45 68 30 177 -32
230 -23 20 -75 51 -91 54 -5 1 -21 4 -35 7 -120 24 -168 52 -176 103 -3 21 2
39 17 58 58 74 196 71 270 -5 46 -47 87 -52 117 -14 60 77 -84 193 -248 199
-36 1 -78 -1 -95 -5z"/>
<path d="M1173 2109 c-41 -15 -52 -65 -23 -102 19 -24 19 -26 3 -58 -14 -28
-17 -64 -18 -194 0 -149 2 -163 24 -208 48 -96 126 -131 291 -129 52 1 104 4
115 6 11 2 23 5 27 5 4 1 15 15 24 32 15 30 15 33 -4 58 -18 25 -24 26 -118
27 -161 2 -196 13 -212 66 -22 74 -22 78 6 79 15 0 96 1 180 2 139 2 155 4
168 21 20 28 17 63 -6 86 -18 18 -33 20 -191 20 l-172 0 7 60 c5 45 3 65 -8
82 l-15 23 215 1 c197 1 217 3 234 20 30 30 32 69 5 94 -22 20 -29 21 -267 19
-135 -1 -254 -6 -265 -10z"/>
<path d="M1854 2112 c-56 -8 -64 -13 -72 -45 -9 -32 0 -65 22 -79 6 -4 59 -8
118 -8 l108 0 -2 -37 c-2 -51 13 -453 18 -478 6 -32 42 -56 73 -49 52 13 56
23 52 161 -2 71 -4 191 -5 267 l-1 139 105 2 c58 1 110 3 117 4 23 2 43 33 43
65 0 60 -6 61 -295 61 -143 0 -270 -1 -281 -3z"/>
<path d="M1906 1077 c-16 -13 -25 -27 -19 -30 13 -8 75 31 68 43 -9 15 -17 12
-49 -13z"/>
<path d="M2250 1087 c-21 -11 -25 -20 -25 -59 -1 -25 -6 -52 -11 -59 -53 -67
19 -141 106 -110 21 7 39 7 57 0 18 -6 30 -6 36 0 7 7 3 13 -14 19 -20 8 -23
15 -20 52 2 30 -1 41 -10 38 -7 -2 -14 -15 -16 -28 -5 -35 -8 -35 -49 3 l-38
34 29 14 c37 18 55 63 34 83 -22 22 -52 27 -79 13z m56 -32 c8 -20 -13 -45
-37 -45 -13 0 -19 7 -19 23 0 13 3 27 7 30 12 13 44 7 49 -8z m-8 -176 c-48
-12 -87 27 -66 66 9 15 14 13 50 -22 38 -37 38 -38 16 -44z"/>
<path d="M2699 1086 c-71 -23 -70 -101 2 -130 22 -9 46 -16 53 -16 13 0 26
-20 26 -41 0 -5 -12 -14 -26 -19 -19 -8 -34 -6 -60 6 -41 20 -56 11 -28 -17
40 -39 128 -22 140 28 6 21 1 31 -20 50 -15 13 -37 23 -50 23 -21 0 -66 33
-66 48 0 5 6 17 14 27 18 25 88 25 115 1 14 -13 21 -14 26 -6 20 32 -69 65
-126 46z"/>
<path d="M1158 1073 c-77 -89 -48 -215 52 -223 48 -4 68 0 94 21 38 30 18 43
-29 19 -79 -39 -147 10 -131 94 14 73 72 100 131 62 30 -20 45 -20 45 -2 0 38
-133 62 -162 29z"/>
<path d="M1660 1071 c-5 -11 -11 -31 -12 -45 -2 -22 -7 -26 -35 -26 -23 0 -33
-5 -33 -15 0 -10 10 -15 30 -15 17 0 30 -3 30 -7 1 -21 12 -89 15 -100 3 -7
10 -13 16 -13 8 0 10 17 5 60 l-7 60 41 0 c51 0 51 23 0 27 -41 4 -39 2 -33
36 5 24 10 28 30 24 27 -5 42 11 22 24 -24 15 -58 10 -69 -10z"/>
<path d="M3540 970 c0 -93 3 -121 13 -117 9 3 12 35 12 117 0 82 -3 114 -12
118 -10 3 -13 -25 -13 -118z"/>
<path d="M3100 914 c0 -95 3 -114 15 -114 11 0 15 11 15 36 0 31 3 35 23 34
47 -4 68 1 87 20 26 26 25 73 -2 105 -19 21 -33 26 -80 29 l-58 3 0 -113z
m121 65 c11 -18 11 -50 0 -68 -5 -7 -27 -15 -50 -17 l-41 -3 0 54 0 53 41 -2
c22 -2 45 -9 50 -17z"/>
<path d="M3317 1024 c-1 -2 -2 -38 0 -81 1 -43 2 -93 2 -111 1 -22 5 -32 14
-29 6 2 12 20 12 39 0 33 2 35 25 28 64 -18 120 32 105 93 -11 42 -39 59 -99
62 -31 1 -57 1 -59 -1z m117 -46 c32 -46 15 -79 -43 -84 -33 -2 -41 1 -42 14
-6 85 -3 92 43 92 17 0 33 -9 42 -22z"/>
<path d="M3740 975 l-33 -57 -29 51 c-16 28 -36 51 -44 51 -8 0 -14 -3 -14 -6
0 -7 22 -48 29 -54 3 -3 15 -21 25 -41 19 -37 19 -37 -2 -73 -26 -44 -27 -48
-6 -44 20 4 128 208 116 220 -6 6 -22 -13 -42 -47z"/>
<path d="M1400 993 c-11 -14 -20 -28 -21 -32 -6 -47 -3 -58 21 -83 28 -28 68
-31 96 -7 8 7 14 6 19 -1 3 -5 11 -10 17 -10 7 0 9 25 5 78 -4 42 -6 77 -7 77
0 0 -25 1 -55 2 -48 2 -57 -1 -75 -24z m108 -40 c3 -38 -13 -59 -51 -68 -20
-5 -29 -2 -41 18 -29 43 0 89 54 85 33 -2 36 -4 38 -35z"/>
<path d="M1822 1000 c-25 -24 -37 -60 -28 -93 10 -41 106 -79 106 -42 0 8 -9
15 -19 15 -24 0 -51 10 -51 19 0 4 17 6 38 5 58 -1 82 14 82 51 0 59 -82 87
-128 45z m95 -27 c19 -25 -2 -43 -53 -43 -49 0 -56 13 -24 48 22 24 58 22 77
-5z"/>
<path d="M2886 998 c-10 -39 -6 -102 8 -120 17 -23 68 -33 93 -19 14 7 23 7
31 -1 15 -15 25 10 18 48 -2 16 -5 48 -5 72 -1 31 -5 42 -17 42 -12 0 -15 -11
-13 -54 3 -64 -11 -86 -52 -86 -35 0 -45 28 -35 95 6 36 4 45 -7 45 -8 0 -17
-10 -21 -22z"/>
</g>
</svg>
